PathFileType	4	(X/Y/Z)	pose_F01_0-96.trc
DataRate	CameraRate	NumFrames	NumMarkers	Units	OrigDataRate	OrigDataStartFrame	OrigNumFrames
30	30	7	21	m	30	36	96
Frame#	Time	CHip			RHip			RKnee			RAnkle			RBigToe			RSmallToe			RHeel			LHip			LKnee			LAnkle			LBigToe			LSmallToe			LHeel			Neck			Nose			RShoulder			RElbow			RWrist			LShoulder			LElbow			LWrist			
		X1	Y1	Z1	X2	Y2	Z2	X3	Y3	Z3	X4	Y4	Z4	X5	Y5	Z5	X6	Y6	Z6	X7	Y7	Z7	X8	Y8	Z8	X9	Y9	Z9	X10	Y10	Z10	X11	Y11	Z11	X12	Y12	Z12	X13	Y13	Z13	X14	Y14	Z14	X15	Y15	Z15	X16	Y16	Z16	X17	Y17	Z17	X18	Y18	Z18	X19	Y19	Z19	X20	Y20	Z20	X21	Y21	Z21	
36	1.2	-0.17707355378554523	1.890810476684302	-0.6346813608881	-0.19296683143012575	1.8889211174470153	-0.5627760326497226	-0.1832031661567588	1.7414869552965202	-0.5584456236515486	-0.17360772244079714	1.6003856000123928	-0.5509303404879274	-0.20411266510198073	1.5600595486170818	-0.5274294007269096	-0.20185064790040186	1.5671047398205882	-0.5038830046202497	-0.1694791247098197	1.5882414967905685	-0.5624325994716455	-0.15799919102039825	1.892964330543282	-0.7001980254485642	-0.15963335918899962	1.74040179911114	-0.6767352524467987	-0.15932952232021796	1.5937842739614512	-0.6470889753660137	-0.1858644438903714	1.550570079449863	-0.6484486739591283	-0.17474658825489456	1.5565379446083496	-0.6769383903939037	-0.15199933306956695	1.5823662672761516	-0.6361243861248042	-0.16771803689027354	2.053518634225843	-0.6425380220197424	-0.19057762218194255	2.1184642123467516	-0.641198474450761	-0.19212954247496467	2.0504543894497624	-0.5461743644681865	-0.2000737540659109	1.9621156386812892	-0.4956885461101337	-0.20897182700049083	1.8832435497705824	-0.4785366700459986	-0.13875120103662697	2.056574935910315	-0.7433991810376548	-0.13031742833156032	1.971675050435008	-0.7686169886687684	-0.1397380974470647	1.8958444573705104	-0.7634950225470782
37	1.2333333333333334	-0.17590453096686204	1.8891805627647849	-0.6311233588731312	-0.1926282497279142	1.8871324400988978	-0.5622862883638278	-0.18507619776892673	1.7384820448217528	-0.5560132992830751	-0.17375183775545583	1.6017295878662836	-0.55074909008819	-0.20411813227979478	1.5601182254511579	-0.5273295400715925	-0.2018274894787936	1.567139627772454	-0.503834771247999	-0.16952800874159982	1.5894013573451602	-0.5622995180686003	-0.15689824174293568	1.8911517596181104	-0.6967721549705178	-0.15928333992162946	1.7375469037157931	-0.6767673399394809	-0.16000147536613768	1.5925027463977564	-0.6506379621103002	-0.18472240974789014	1.5491921349690536	-0.6455270403609361	-0.17474818686770402	1.5565111845007353	-0.6768694449565072	-0.15255014085623547	1.583349264873891	-0.640044822695913	-0.1676297340634393	2.0535340611564945	-0.6426939777407794	-0.19056102794118515	2.119761991832922	-0.6417691544675631	-0.19007975497409083	2.0505805044958874	-0.548578249076678	-0.2017000065191871	1.963985988259994	-0.4930156779579653	-0.2094717513355145	1.8853822829882372	-0.4820552694064158	-0.13877187137465724	2.056523252816107	-0.7434460651821695	-0.1242972992513139	1.9721113120661353	-0.7789403177469177	-0.14144547993106335	1.8946241016546024	-0.7696865891511062
38	1.2666666666666666	-0.1780438882155509	1.8890338615847124	-0.6287132207831421	-0.19469064751460252	1.8855922346005327	-0.5596679658466917	-0.19624679430605838	1.7350040336659207	-0.5477172545313144	-0.17539908910761878	1.6017041006378883	-0.5492433278138921	-0.20811406044820646	1.5621858959264805	-0.5231440495511074	-0.2024928526340713	1.5677003895326902	-0.4988481554877638	-0.17122037811846316	1.5924072538283736	-0.5611431868717497	-0.16123604486815782	1.8909082844969112	-0.6920663972884831	-0.1679657206417963	1.7356631631469763	-0.6674875340973391	-0.15858485613474232	1.5911367149067226	-0.6561451638474745	-0.1858920659492029	1.5479948975847613	-0.6481811138942596	-0.17470694008711457	1.5564854357460471	-0.6770058369565247	-0.15228605462854447	1.5818441839925914	-0.6404055937395055	-0.16852083779831847	2.0536822180611214	-0.6456698626418699	-0.19055505108316953	2.119728579591117	-0.6418623684053067	-0.1929814111349148	2.0530730799047934	-0.5498277409111696	-0.20995075982100928	1.9696116758244575	-0.4856303166384694	-0.21617848601850367	1.9023832944047088	-0.5053204691407023	-0.1388277304385966	2.055391862896118	-0.7437320727264127	-0.12332193891064762	1.9753714926626291	-0.7993600867778337	-0.149175567342333	1.9022077074091936	-0.7696956184434234
39	1.3	-0.17837604028041712	1.887501762701009	-0.6198710175467116	-0.19769739677983142	1.886579337312616	-0.552042165482593	-0.21012222518252424	1.728760874244854	-0.5186304907127065	-0.1796996634246543	1.6084742842350361	-0.532830018507008	-0.21007946867441551	1.5714216607420137	-0.5007534759439649	-0.2053392061181142	1.5772303822427065	-0.4796253440361718	-0.17025528888914118	1.603131981280337	-0.5470586338693104	-0.16328745518793739	1.8919972695481417	-0.6897341540827098	-0.16939291297397052	1.7328309532598047	-0.6617156643642719	-0.1599138478864576	1.5952278849535544	-0.6556113470194262	-0.18493986638069695	1.550606271697906	-0.6452157618180749	-0.174708573625917	1.5563113942347404	-0.6769010709599106	-0.1512439196387065	1.5844597658855277	-0.6424065094071869	-0.16767732638803526	2.054664680045101	-0.6424319471709306	-0.18863611377547712	2.114849725627971	-0.6433685112351756	-0.19214120829707113	2.054260913722825	-0.5473644016030486	-0.22463432873676686	1.9822076620368272	-0.484341086575071	-0.2112598326775488	1.9335972154284062	-0.5437115007630798	-0.13943565858966822	2.056162493082718	-0.7351400979985664	-0.124537157204177	1.9868538203929913	-0.8068045416995675	-1.293011722312078	1.8288568846510027	0.39031447004660913
40	1.3333333333333333	-0.18082393654849105	1.88892307590033	-0.617897407827032	-0.1981208726667524	1.8881068056888157	-0.5523542183253255	-0.21772759789283413	1.7362328258222317	-0.4801645667338891	-0.17915425155132872	1.6237071426295657	-0.477081888866498	-0.21440390972533838	1.591905749338861	-0.4344805582687659	-0.2065366794716888	1.6003397865234386	-0.4123237955319815	-0.17025499278352224	1.6162434621566073	-0.4993346360828438	-0.16511993713195616	1.892204740653539	-0.6846411395099465	-0.1677281039950053	1.734225882941441	-0.6636287500845927	-0.15952437130481092	1.5950932649178131	-0.6516066441058662	-0.18181206409657355	1.5505733349512552	-0.644159637239668	-0.1713109732654416	1.5577960379496725	-0.6766234516001135	-0.15317638892047974	1.5855691628639685	-0.6404905779437251	-0.17029240370177928	2.0545533167135726	-0.6321695815369345	-0.1859481219424284	2.106110883170489	-0.6415146522724621	-0.19738479158217104	2.051508283198169	-0.5370268988232577	-0.23517955218701997	1.9940944364179567	-0.4959217929988719	-0.5267657590291057	1.930375214227047	-0.14453645525248582	-0.14287470887600023	2.057013597024949	-0.7164004654416322	-0.12472356168218879	2.007522828149354	-0.8127463122901628	-0.712909436908965	1.9330049977652006	-0.19641481435642116
41	1.3666666666666667	-0.17993471273034845	1.8952870056835294	-0.6157933550886733	-0.1982858801974786	1.890720772685007	-0.5529081584593205	-0.22361842295175585	1.7410562383049217	-0.45624586593181726	-0.20049863270922244	1.6167855626616554	-0.3843257509085033	-0.21440390972533838	1.591905749338861	-0.4344805582687659	-0.2065366794716888	1.6003397865234386	-0.4123237955319815	-0.1917994003492373	1.6123039536753667	-0.39430461547181184	-0.16421340762712244	1.897181843058131	-0.6821339348372277	-0.16987159193713255	1.7365491170588159	-0.661687930930143	-0.15936010945697385	1.5937253446444528	-0.6516213746501891	-0.1847196442039232	1.549208047862876	-0.64558078836146	-0.17431202701215387	1.5576165447464614	-0.6775947050387937	-0.15227760811831467	1.5827438526568371	-0.6369868160592022	-0.1785324245743377	2.0524489716096705	-0.6032079183575204	-0.18416367044249735	2.0935919618238747	-0.6418697478890608	-0.20097846369171643	2.0475725674474012	-0.5125068622643227	-0.2683321102465825	2.0270335107553694	-0.4897852711437039	-0.8422716853806625	1.9271532130256879	0.2546385902581082	-0.1505513846736788	2.057615804262381	-0.6929033082905957	-0.11187783908421578	2.0430479132304833	-0.803744617837839	-0.132807151505852	2.0371531108793985	-0.7831440987594515
42	1.4	-0.1862730545336306	1.8907790403392555	-0.5992370439877232	-0.2003322399340682	1.8848804766625082	-0.5318401918761628	-0.21802396460814033	1.7386862201450912	-0.44375590925326214	-0.20617767717017005	1.617292976031691	-0.3566464075476795	-0.21440390972533838	1.591905749338861	-0.4344805582687659	-0.2065366794716888	1.6003397865234386	-0.4123237955319815	-0.19967070054468003	1.6141485443001236	-0.36184987903016563	-0.165941068003075	1.8954239229217331	-0.6676455234748312	-0.172240255942308	1.732071386988132	-0.658534973309584	-0.15851893186469035	1.593710444836885	-0.6484602631100904	-0.18332785114756428	1.549200893841208	-0.6510643836082363	-0.16993252303763343	1.5577884395397965	-0.6821208667051726	-0.15259341950283947	1.5843135732549654	-0.6366620932217621	-0.18023756178547884	2.0507670556690694	-0.589219947079977	-0.18465225666220345	2.0871969203976675	-0.6322516234179792	-0.2051757272736482	2.043109521544788	-0.49897649677470013	-0.25530407927504617	2.0356829310637794	-0.4217100830421235	-1.1577776117322194	1.9239312118243288	0.6538136357687022	-0.15388976560791834	2.0609467839321414	-0.6750822055068262	-0.10984716617944092	2.0653474574589574	-0.8348193353369865	-0.14270815421264144	2.055509986001476	-0.7695221202552074
